<svg id="Layer_1" data-name="Layer 1" xmlns="http://www.w3.org/2000/svg" viewBox="0 0 223.11 70.81"><defs><style>.cls-1{fill:#737373;}.cls-2{fill:#00b9d7;}.cls-3{fill:#fff;}.cls-4{fill:#fc6d11;}</style></defs><path class="cls-1" d="M12.09,60H6.28L5.21,63H3.38L8.19,49.73h2L15,63H13.15Zm-.5-1.41L9.18,51.87,6.78,58.6Z"/><path class="cls-1" d="M28.45,52.5V63H26.72V61.42a3.46,3.46,0,0,1-1.39,1.26,4.38,4.38,0,0,1-2,.44,4.65,4.65,0,0,1-2.19-.5,3.7,3.7,0,0,1-1.54-1.52,5,5,0,0,1-.56-2.46V52.5h1.71v5.91a3.32,3.32,0,0,0,.79,2.37,2.77,2.77,0,0,0,2.14.83,2.84,2.84,0,0,0,2.19-.85,3.54,3.54,0,0,0,.81-2.51V52.5Z"/><path class="cls-1" d="M40.17,52.92a4,4,0,0,1,1.52,1.49V52.5h1.76V63.2a5.28,5.28,0,0,1-.61,2.55,4.34,4.34,0,0,1-1.75,1.75,5.38,5.38,0,0,1-2.65.63,5.77,5.77,0,0,1-3.43-1,3.81,3.81,0,0,1-1.63-2.65H35.1A2.73,2.73,0,0,0,36.29,66a3.82,3.82,0,0,0,2.15.58,3.17,3.17,0,0,0,2.34-.9,3.37,3.37,0,0,0,.91-2.52V61a4.15,4.15,0,0,1-1.53,1.53,4.45,4.45,0,0,1-2.37.61,4.72,4.72,0,0,1-4.31-2.61,5.94,5.94,0,0,1-.65-2.83,5.81,5.81,0,0,1,.65-2.82A4.75,4.75,0,0,1,35.26,53a5,5,0,0,1,2.53-.67A4.69,4.69,0,0,1,40.17,52.92Zm1,2.74a3.36,3.36,0,0,0-1.29-1.35,3.64,3.64,0,0,0-3.56,0,3.38,3.38,0,0,0-1.28,1.34,4.21,4.21,0,0,0-.48,2.06,4.33,4.33,0,0,0,.48,2.09,3.43,3.43,0,0,0,1.28,1.36,3.67,3.67,0,0,0,3.56,0,3.39,3.39,0,0,0,1.29-1.36,4.28,4.28,0,0,0,.48-2.07A4.21,4.21,0,0,0,41.21,55.66Z"/><path class="cls-1" d="M57.75,52.5V63H56V61.42a3.46,3.46,0,0,1-1.39,1.26,4.38,4.38,0,0,1-2,.44,4.65,4.65,0,0,1-2.19-.5,3.7,3.7,0,0,1-1.54-1.52,5,5,0,0,1-.56-2.46V52.5h1.71v5.91a3.32,3.32,0,0,0,.79,2.37,2.77,2.77,0,0,0,2.14.83,2.84,2.84,0,0,0,2.19-.85A3.54,3.54,0,0,0,56,58.25V52.5Z"/><path class="cls-1" d="M64.32,62.73a3.56,3.56,0,0,1-1.5-1.14,3.08,3.08,0,0,1-.62-1.69H64a1.79,1.79,0,0,0,.73,1.28,2.82,2.82,0,0,0,1.73.49A2.46,2.46,0,0,0,68,61.23a1.33,1.33,0,0,0,.57-1.1,1.1,1.1,0,0,0-.61-1,9,9,0,0,0-1.89-.66,13.26,13.26,0,0,1-1.9-.62,3.4,3.4,0,0,1-1.26-.93,2.65,2.65,0,0,1,0-3.11,3.27,3.27,0,0,1,1.36-1.06,4.86,4.86,0,0,1,2-.39,4.31,4.31,0,0,1,2.81.88,3.19,3.19,0,0,1,1.15,2.41H68.47a1.81,1.81,0,0,0-.66-1.32,2.46,2.46,0,0,0-1.61-.5,2.53,2.53,0,0,0-1.49.4,1.25,1.25,0,0,0-.56,1,1.15,1.15,0,0,0,.34.86,2.37,2.37,0,0,0,.84.53c.33.13.8.28,1.4.45a14,14,0,0,1,1.83.6,3.16,3.16,0,0,1,1.22.89,2.39,2.39,0,0,1,.52,1.55,2.69,2.69,0,0,1-.47,1.54,3.18,3.18,0,0,1-1.35,1.08,4.86,4.86,0,0,1-2,.39A5.33,5.33,0,0,1,64.32,62.73Z"/><path class="cls-1" d="M77,53.94v6.17a1.5,1.5,0,0,0,.32,1.08,1.63,1.63,0,0,0,1.13.31h1.28V63H78.11a3.08,3.08,0,0,1-2.17-.67,2.82,2.82,0,0,1-.73-2.19V53.94H73.86V52.5h1.35V49.87H77V52.5h2.73v1.44Z"/><path class="cls-1" d="M91.83,50.79a4.71,4.71,0,0,1,7.47,0,10.31,10.31,0,0,1,1.07,5.13,10.53,10.53,0,0,1-1.07,5.2,4.7,4.7,0,0,1-7.47,0,10.53,10.53,0,0,1-1.07-5.2A10.31,10.31,0,0,1,91.83,50.79Zm6.6,2.32a3.65,3.65,0,0,0-.9-1.87,3.11,3.11,0,0,0-3.93,0,3.5,3.5,0,0,0-.9,1.87,15,15,0,0,0-.22,2.81,15.66,15.66,0,0,0,.22,2.89,3.5,3.5,0,0,0,.9,1.87,3.07,3.07,0,0,0,3.93,0,3.65,3.65,0,0,0,.9-1.87,16.59,16.59,0,0,0,.22-2.89A15.85,15.85,0,0,0,98.43,53.11Z"/><path class="cls-1" d="M109.92,50.33a2.79,2.79,0,0,0-2.54,1.31,8.17,8.17,0,0,0-.83,4.3A3.24,3.24,0,0,1,108,54.39a4.59,4.59,0,0,1,2.28-.57A4.16,4.16,0,0,1,113.44,55a4.72,4.72,0,0,1,1.18,3.39,5.21,5.21,0,0,1-.51,2.33,4,4,0,0,1-1.53,1.64,4.69,4.69,0,0,1-2.47.61,4.82,4.82,0,0,1-3.08-.88,4.52,4.52,0,0,1-1.54-2.43,13.85,13.85,0,0,1-.44-3.81c0-4.68,1.63-7,4.89-7a3.91,3.91,0,0,1,4.2,3.57h-1.61A2.39,2.39,0,0,0,109.92,50.33Zm-1.53,5.3a2.75,2.75,0,0,0-1.18,1,2.91,2.91,0,0,0-.45,1.65,3.29,3.29,0,0,0,.85,2.36,3.09,3.09,0,0,0,2.4.91,2.82,2.82,0,0,0,2.13-.83,3.12,3.12,0,0,0,.79-2.25,3.38,3.38,0,0,0-.76-2.34,2.86,2.86,0,0,0-2.23-.85A3.55,3.55,0,0,0,108.39,55.63Z"/><path class="cls-1" d="M126.59,55.24v1.47H119V55.24Z"/><path class="cls-1" d="M132.72,50.79A4,4,0,0,1,136.47,49a4,4,0,0,1,3.72,1.84,10.31,10.31,0,0,1,1.07,5.13,10.53,10.53,0,0,1-1.07,5.2A3.94,3.94,0,0,1,136.47,63a4,4,0,0,1-3.75-1.85,10.53,10.53,0,0,1-1.07-5.2A10.31,10.31,0,0,1,132.72,50.79Zm6.6,2.32a3.58,3.58,0,0,0-.9-1.87,2.57,2.57,0,0,0-1.95-.7,2.61,2.61,0,0,0-2,.7,3.65,3.65,0,0,0-.9,1.87,15,15,0,0,0-.22,2.81,15.66,15.66,0,0,0,.22,2.89,3.65,3.65,0,0,0,.9,1.87,2.62,2.62,0,0,0,2,.71,2.58,2.58,0,0,0,1.95-.71,3.58,3.58,0,0,0,.9-1.87,15.66,15.66,0,0,0,.22-2.89A15,15,0,0,0,139.32,53.11Z"/><path class="cls-1" d="M154.23,50.52,148.92,63h-1.76l5.39-12.28h-7.37V49.2h9Z"/><path class="cls-1" d="M160.32,60.56l-2.14,5.14H157l1.39-5.14Z"/><path class="cls-1" d="M174.88,58.38a16,16,0,0,0,2.32-2.62,4.69,4.69,0,0,0,.94-2.68,3,3,0,0,0-.6-2,2.39,2.39,0,0,0-1.94-.72,2.51,2.51,0,0,0-2,.82,3.37,3.37,0,0,0-.78,2.16h-1.68a4.61,4.61,0,0,1,1.3-3.3,4.93,4.93,0,0,1,6.28-.08,3.93,3.93,0,0,1,1.15,3,5.72,5.72,0,0,1-.94,3.09,13.62,13.62,0,0,1-2.15,2.63c-.81.76-1.83,1.64-3.08,2.65h6.57v1.45h-9.18V61.58Q173.5,59.63,174.88,58.38Z"/><path class="cls-1" d="M185.42,50.79a4.71,4.71,0,0,1,7.47,0A10.31,10.31,0,0,1,194,55.92a10.53,10.53,0,0,1-1.07,5.2,4.7,4.7,0,0,1-7.47,0,10.53,10.53,0,0,1-1.07-5.2A10.31,10.31,0,0,1,185.42,50.79Zm6.6,2.32a3.65,3.65,0,0,0-.9-1.87,3.11,3.11,0,0,0-3.93,0,3.5,3.5,0,0,0-.9,1.87,15,15,0,0,0-.22,2.81,15.66,15.66,0,0,0,.22,2.89,3.5,3.5,0,0,0,.9,1.87,3.07,3.07,0,0,0,3.93,0,3.65,3.65,0,0,0,.9-1.87,16.59,16.59,0,0,0,.22-2.89A15.85,15.85,0,0,0,192,53.11Z"/><path class="cls-1" d="M202,58.38a16,16,0,0,0,2.32-2.62,4.69,4.69,0,0,0,.94-2.68,3,3,0,0,0-.6-2,2.39,2.39,0,0,0-1.94-.72,2.52,2.52,0,0,0-2,.82,3.37,3.37,0,0,0-.78,2.16h-1.68a4.61,4.61,0,0,1,1.3-3.3,4.93,4.93,0,0,1,6.28-.08A3.93,3.93,0,0,1,207,53a5.72,5.72,0,0,1-.94,3.09,13.62,13.62,0,0,1-2.15,2.63c-.8.76-1.83,1.64-3.08,2.65h6.57v1.45h-9.18V61.58Q200.64,59.63,202,58.38Z"/><path class="cls-1" d="M216.57,50.33A2.8,2.8,0,0,0,214,51.64a8.19,8.19,0,0,0-.82,4.3,3.22,3.22,0,0,1,1.46-1.55,4.59,4.59,0,0,1,2.28-.57A4.19,4.19,0,0,1,220.1,55a4.72,4.72,0,0,1,1.17,3.39,5.21,5.21,0,0,1-.51,2.33,3.87,3.87,0,0,1-1.52,1.64,4.73,4.73,0,0,1-2.48.61,4.79,4.79,0,0,1-3.07-.88,4.53,4.53,0,0,1-1.55-2.43,14.25,14.25,0,0,1-.44-3.81c0-4.68,1.63-7,4.89-7a4.07,4.07,0,0,1,2.94,1,4,4,0,0,1,1.26,2.56h-1.6A2.39,2.39,0,0,0,216.57,50.33ZM215,55.63a2.78,2.78,0,0,0-1.17,1,2.91,2.91,0,0,0-.45,1.65,3.33,3.33,0,0,0,.84,2.36,3.1,3.1,0,0,0,2.41.91,2.82,2.82,0,0,0,2.13-.83,3.12,3.12,0,0,0,.79-2.25,3.38,3.38,0,0,0-.76-2.34,2.89,2.89,0,0,0-2.24-.85A3.58,3.58,0,0,0,215,55.63Z"/><rect class="cls-1" x="4.55" y="43.07" width="217.5" height="0.74"/><path class="cls-2" d="M183.78,9.86s5.41-1.08,9-.06,5.57,2.41,6.88,4.55l-.23-1.7L204.31,9a16.56,16.56,0,0,0-4.07-4V3A17.59,17.59,0,0,0,188.9.05L187.84,1.8a9.21,9.21,0,0,0-5.53,1.82l2.34,5Z"/><path class="cls-3" d="M186.93,8.32a8.71,8.71,0,0,1,11,2.54,16.88,16.88,0,0,0-5.25-2.4A16.61,16.61,0,0,0,186.93,8.32Z"/><path class="cls-2" d="M150.26,11.06c6.48,5.91,16.76,4.59,24.18,2.68,8.21-3,19.65-5.33,25.68,2.84l-1.64,1.23c-4-5.37-11.14-5.35-17.08-3.87a58.4,58.4,0,0,0-6.29,1.92,46.46,46.46,0,0,1-13.48,1.78,20.44,20.44,0,0,1-13-4.79l1.59-1.79Z"/><rect class="cls-3" x="192.39" y="3.19" width="3.34" height="1.39" transform="translate(145.52 191.82) rotate(-76.66)"/><rect class="cls-3" x="193.37" y="2.13" width="1.39" height="3.51" transform="translate(145.47 191.81) rotate(-76.65)"/><path class="cls-2" d="M164.7,35.74h-3.22l-7.27-11v11H151v-16h3.22l7.27,11V16.29h3.22Z"/><path class="cls-2" d="M188.55,20.58l-4,15.36H180l-2.45-10.11L175,35.94H170.5l-3.9-15.36h4l2.21,11.18,2.73-11.18h4.11l2.63,11.18,2.23-11.18Z"/><path class="cls-2" d="M200.63,25.44a2.82,2.82,0,0,0-1.2-1.17,3.85,3.85,0,0,0-1.82-.41,3.75,3.75,0,0,0-2.91,1.2,4.5,4.5,0,0,0-1.1,3.18,4.62,4.62,0,0,0,1.15,3.32,4.21,4.21,0,0,0,3.16,1.19,3.79,3.79,0,0,0,2.33-.7,3.94,3.94,0,0,0,1.39-2h-4.75V27.28H205v3.48a7.13,7.13,0,0,1-1.41,2.6,7.48,7.48,0,0,1-2.52,2,7.94,7.94,0,0,1-3.46.74,8.22,8.22,0,0,1-4.06-1,7.12,7.12,0,0,1-2.78-2.77,8.15,8.15,0,0,1-1-4.05,8.22,8.22,0,0,1,1-4.06,7.12,7.12,0,0,1,2.77-2.78,8.15,8.15,0,0,1,4.05-1,7.9,7.9,0,0,1,4.65,1.33,6.3,6.3,0,0,1,2.5,3.7Z"/><path class="cls-2" d="M207.45,24.18a7.07,7.07,0,0,1,2.75-2.78,8,8,0,0,1,4-1,7.67,7.67,0,0,1,4.69,1.44,7,7,0,0,1,2.6,3.94h-4.11a3.42,3.42,0,0,0-1.31-1.47,3.7,3.7,0,0,0-1.91-.5,3.57,3.57,0,0,0-2.8,1.2,4.66,4.66,0,0,0-1.07,3.22,4.66,4.66,0,0,0,1.07,3.22,3.57,3.57,0,0,0,2.8,1.2,3.7,3.7,0,0,0,1.91-.5,3.42,3.42,0,0,0,1.31-1.47h4.11a7,7,0,0,1-2.6,3.93,7.73,7.73,0,0,1-4.69,1.43,8,8,0,0,1-4-1,7.11,7.11,0,0,1-2.75-2.77,8.26,8.26,0,0,1-1-4.05A8.32,8.32,0,0,1,207.45,24.18Z"/><path class="cls-4" d="M14.3,21.6a2.86,2.86,0,0,0-1.19-1.17A3.92,3.92,0,0,0,11.28,20a3.75,3.75,0,0,0-2.91,1.2A4.5,4.5,0,0,0,7.28,24.4a4.59,4.59,0,0,0,1.14,3.31,4.18,4.18,0,0,0,3.17,1.2,3.9,3.9,0,0,0,2.33-.7,4.06,4.06,0,0,0,1.39-2H10.56V23.44H18.7v3.48a7.44,7.44,0,0,1-1.41,2.6,7.62,7.62,0,0,1-2.53,1.95,7.91,7.91,0,0,1-3.46.74,8.22,8.22,0,0,1-4.06-1,7.19,7.19,0,0,1-2.78-2.77,8.15,8.15,0,0,1-1-4.05,8.22,8.22,0,0,1,1-4.06,7.19,7.19,0,0,1,2.77-2.78,8.15,8.15,0,0,1,4-1,7.85,7.85,0,0,1,4.65,1.33,6.25,6.25,0,0,1,2.5,3.7Z"/><path class="cls-4" d="M33.25,19.89l-7.66,18h-4l2.8-6.21-5-11.8h4.18l2.82,7.64,2.8-7.64Z"/><path class="cls-4" d="M45.47,21.15A5.44,5.44,0,0,1,46.75,25V32.1H43V25.47a2.65,2.65,0,0,0-.64-1.9,2.48,2.48,0,0,0-3.41,0,2.69,2.69,0,0,0-.63,1.9V32.1H34.6V19.89h3.75v1.62a4,4,0,0,1,1.53-1.28A4.89,4.89,0,0,1,42,19.76,4.44,4.44,0,0,1,45.47,21.15Z"/><path class="cls-4" d="M60.8,26.89H52.33a2.55,2.55,0,0,0,.73,1.74,2.25,2.25,0,0,0,1.59.61,2,2,0,0,0,1.94-1.19h4a5.52,5.52,0,0,1-3.11,3.68,6.34,6.34,0,0,1-2.69.55,6.59,6.59,0,0,1-3.2-.77,5.41,5.41,0,0,1-2.18-2.19A6.68,6.68,0,0,1,48.61,26a6.94,6.94,0,0,1,.77-3.33,5.41,5.41,0,0,1,2.18-2.19,7.14,7.14,0,0,1,6.37,0,5.29,5.29,0,0,1,2.15,2.12,6.45,6.45,0,0,1,.78,3.22A10.23,10.23,0,0,1,60.8,26.89ZM57,24.82a2,2,0,0,0-.65-1.54,2.43,2.43,0,0,0-1.65-.57,2.39,2.39,0,0,0-1.58.55,2.45,2.45,0,0,0-.8,1.56Z"/><path class="cls-4" d="M62.86,22.67A5.38,5.38,0,0,1,65,20.48a6.5,6.5,0,0,1,3.18-.76,6,6,0,0,1,3.84,1.2,5.66,5.66,0,0,1,2,3.39h-4a1.93,1.93,0,0,0-1.95-1.4,2,2,0,0,0-1.64.8A3.69,3.69,0,0,0,65.89,26a3.66,3.66,0,0,0,.62,2.28,1.94,1.94,0,0,0,1.64.8,1.92,1.92,0,0,0,1.95-1.4h4a5.72,5.72,0,0,1-2,3.37,6,6,0,0,1-3.83,1.23A6.51,6.51,0,0,1,65,31.51a5.38,5.38,0,0,1-2.17-2.19A6.9,6.9,0,0,1,62.09,26,6.94,6.94,0,0,1,62.86,22.67Z"/><path class="cls-4" d="M78.4,31.51a5.52,5.52,0,0,1-2.25-2.19A6.49,6.49,0,0,1,75.32,26a6.45,6.45,0,0,1,.84-3.32,5.65,5.65,0,0,1,2.27-2.2,7.29,7.29,0,0,1,6.48,0,5.65,5.65,0,0,1,2.27,2.2,6.92,6.92,0,0,1,0,6.63,5.64,5.64,0,0,1-2.29,2.2,6.9,6.9,0,0,1-3.25.77A6.73,6.73,0,0,1,78.4,31.51Zm5-3.26A3.1,3.1,0,0,0,84.21,26a3.25,3.25,0,0,0-.73-2.26,2.51,2.51,0,0,0-3.63,0A3.24,3.24,0,0,0,79.13,26a3.26,3.26,0,0,0,.71,2.25,2.3,2.3,0,0,0,1.79.79A2.41,2.41,0,0,0,83.45,28.25Z"/><path class="cls-4" d="M93.75,15.91V32.1H90V15.91Z"/><path class="cls-4" d="M98.79,31.51a5.64,5.64,0,0,1-2.25-2.19A6.49,6.49,0,0,1,95.72,26a6.45,6.45,0,0,1,.83-3.32,5.65,5.65,0,0,1,2.27-2.2,7.29,7.29,0,0,1,6.48,0,5.74,5.74,0,0,1,2.28,2.2,6.54,6.54,0,0,1,.83,3.32,6.41,6.41,0,0,1-.84,3.31,5.72,5.72,0,0,1-2.3,2.2,6.87,6.87,0,0,1-3.25.77A6.76,6.76,0,0,1,98.79,31.51Zm5.06-3.26A3.14,3.14,0,0,0,104.6,26a3.2,3.2,0,0,0-.73-2.26,2.38,2.38,0,0,0-1.81-.78,2.35,2.35,0,0,0-1.81.77A3.24,3.24,0,0,0,99.52,26a3.22,3.22,0,0,0,.72,2.25A2.27,2.27,0,0,0,102,29,2.45,2.45,0,0,0,103.85,28.25Z"/><path class="cls-4" d="M117.3,20.24a3.86,3.86,0,0,1,1.5,1.38V19.89h3.74V32.08a6.93,6.93,0,0,1-.66,3.05,5.16,5.16,0,0,1-2,2.18,6.56,6.56,0,0,1-3.4.81,7.1,7.1,0,0,1-4.4-1.28,4.83,4.83,0,0,1-1.92-3.47h3.69a1.81,1.81,0,0,0,.83,1.11,3,3,0,0,0,1.62.4,2.52,2.52,0,0,0,1.85-.67,2.84,2.84,0,0,0,.69-2.13V30.35a4.14,4.14,0,0,1-1.51,1.39,4.51,4.51,0,0,1-2.25.54,5,5,0,0,1-2.74-.78,5.36,5.36,0,0,1-1.93-2.21,7.26,7.26,0,0,1-.71-3.31,7.24,7.24,0,0,1,.71-3.31,5.3,5.3,0,0,1,1.93-2.19,5.07,5.07,0,0,1,2.74-.76A4.68,4.68,0,0,1,117.3,20.24Zm.73,3.55a2.63,2.63,0,0,0-3.79,0,3,3,0,0,0-.78,2.2,3.1,3.1,0,0,0,.78,2.22,2.61,2.61,0,0,0,3.79,0A3.1,3.1,0,0,0,118.8,26,3.08,3.08,0,0,0,118,23.79Z"/><path class="cls-4" d="M137.73,19.89l-7.66,18h-4l2.81-6.21-5-11.8h4.18l2.82,7.64,2.8-7.64Z"/><path class="cls-4" d="M148.49,22.87V26h-9.62V22.87Z"/></svg>