<svg id="Layer_1" data-name="Layer 1" xmlns="http://www.w3.org/2000/svg" viewBox="0 0 293.33 67.44"><defs><style>.cls-1{opacity:0.88;}.cls-2{fill:#93b48e;}.cls-3{fill:#2b3a3b;}</style></defs><g class="cls-1"><rect class="cls-2" x="145.29" y="6.93" width="0.56" height="51.3"/></g><path class="cls-3" d="M153.83,25.66a5.19,5.19,0,0,1-2.22-1.75,4.46,4.46,0,0,1-.8-2.64h3.07a2.7,2.7,0,0,0,.89,1.86,3.15,3.15,0,0,0,2.22.73,3.45,3.45,0,0,0,2.31-.71,2.32,2.32,0,0,0,.83-1.85,2,2,0,0,0-.51-1.43,3.4,3.4,0,0,0-1.28-.86,18.46,18.46,0,0,0-2.13-.65,19.4,19.4,0,0,1-2.77-.92A4.63,4.63,0,0,1,151.61,16a4.22,4.22,0,0,1-.75-2.62,4.64,4.64,0,0,1,.75-2.63A4.81,4.81,0,0,1,153.73,9a7.68,7.68,0,0,1,3.14-.6A6.53,6.53,0,0,1,161,9.68a4.63,4.63,0,0,1,1.79,3.48h-3.16a2.33,2.33,0,0,0-.91-1.64,3.34,3.34,0,0,0-2.18-.68,3.12,3.12,0,0,0-2,.63,2.2,2.2,0,0,0-.78,1.81,1.81,1.81,0,0,0,.49,1.32,3.32,3.32,0,0,0,1.24.82,18.52,18.52,0,0,0,2.06.65,21.35,21.35,0,0,1,2.83,1,4.72,4.72,0,0,1,1.86,1.47,4.21,4.21,0,0,1,.76,2.65,4.73,4.73,0,0,1-.71,2.51,5.16,5.16,0,0,1-2.09,1.9,6.84,6.84,0,0,1-3.23.72A7.78,7.78,0,0,1,153.83,25.66Z"/><path class="cls-3" d="M169.28,11v5.12h6v2.34h-6v5.35h6.79V26.1h-9.65V8.61h9.65V11Z"/><path class="cls-3" d="M191.17,16.35a4.68,4.68,0,0,1-2,1.92,7.38,7.38,0,0,1-3.54.74h-3.17V26.1h-2.86V8.63h6a7.47,7.47,0,0,1,3.4.7,4.79,4.79,0,0,1,2.09,1.87,5.12,5.12,0,0,1,.69,2.64A5.28,5.28,0,0,1,191.17,16.35Zm-3.11-.42a2.71,2.71,0,0,0,.8-2.09q0-2.86-3.24-2.87h-3.17v5.71h3.17A3.48,3.48,0,0,0,188.06,15.93Z"/><path class="cls-3" d="M205.82,8.63V11h-4.65V26.1h-2.86V11h-4.68V8.63Z"/><path class="cls-3" d="M211.58,11v5.12h6v2.34h-6v5.35h6.78V26.1h-9.65V8.61h9.65V11Z"/><path class="cls-3" d="M240.28,8.63V26.1h-2.87v-12l-5.32,12h-2l-5.35-12v12h-2.87V8.63H225l6.14,13.7,6.1-13.7Z"/><path class="cls-3" d="M255.78,18.61a4.49,4.49,0,0,1,.29,5.19,4.67,4.67,0,0,1-2,1.68,7,7,0,0,1-3.05.62h-7V8.63h6.66a7.13,7.13,0,0,1,3.06.61,4.48,4.48,0,0,1,1.94,1.62,4.15,4.15,0,0,1,.65,2.27,3.94,3.94,0,0,1-.8,2.52,4.73,4.73,0,0,1-2.16,1.48A3.87,3.87,0,0,1,255.78,18.61ZM246.91,16h3.55a3.41,3.41,0,0,0,2.2-.64,2.26,2.26,0,0,0,.79-1.85,2.3,2.3,0,0,0-.79-1.84,3.31,3.31,0,0,0-2.2-.67h-3.55Zm6.16,7.09a2.44,2.44,0,0,0,.83-2,2.56,2.56,0,0,0-.88-2,3.5,3.5,0,0,0-2.34-.75h-3.77v5.45h3.87A3.43,3.43,0,0,0,253.07,23.06Z"/><path class="cls-3" d="M262.75,11v5.12h6v2.34h-6v5.35h6.78V26.1h-9.65V8.61h9.65V11Z"/><path class="cls-3" d="M282.12,26.1l-4-7h-2.19v7h-2.86V8.63h6a7.51,7.51,0,0,1,3.41.71,4.84,4.84,0,0,1,2.08,1.88,5.15,5.15,0,0,1,.69,2.64,5.23,5.23,0,0,1-1,3.1,5,5,0,0,1-3,1.9l4.32,7.24Zm-6.21-9.27h3.17a3.33,3.33,0,0,0,2.43-.81,2.89,2.89,0,0,0,.81-2.16,2.81,2.81,0,0,0-.8-2.12,3.43,3.43,0,0,0-2.44-.77h-3.17Z"/><path class="cls-3" d="M152.44,52.92q2.42-2.09,3.81-3.43a15.66,15.66,0,0,0,2.33-2.8,5.37,5.37,0,0,0,.93-2.92,3.56,3.56,0,0,0-.72-2.36,2.78,2.78,0,0,0-2.25-.85,2.88,2.88,0,0,0-2.3.94,4,4,0,0,0-.87,2.52h-2.76a5.87,5.87,0,0,1,1.72-4.38,6,6,0,0,1,4.19-1.52,5.85,5.85,0,0,1,4.28,1.51,5.35,5.35,0,0,1,1.55,4,7.19,7.19,0,0,1-.92,3.48,14,14,0,0,1-2.19,3Q158,51.44,156,53.17l-1.13,1h8v2.39H150.63V54.48Z"/><path class="cls-3" d="M166.94,52.92q2.42-2.09,3.81-3.43a15.66,15.66,0,0,0,2.33-2.8,5.37,5.37,0,0,0,.93-2.92,3.56,3.56,0,0,0-.72-2.36,2.78,2.78,0,0,0-2.25-.85,2.88,2.88,0,0,0-2.3.94,4,4,0,0,0-.87,2.52h-2.76a5.87,5.87,0,0,1,1.72-4.38A6,6,0,0,1,171,38.12a5.85,5.85,0,0,1,4.28,1.51,5.35,5.35,0,0,1,1.55,4,7.19,7.19,0,0,1-.92,3.48,14,14,0,0,1-2.19,3q-1.26,1.32-3.23,3.05l-1.13,1h8v2.39H165.14V54.48Z"/><path class="cls-3" d="M190.87,46.51v2.42H180.54V46.51Z"/><path class="cls-3" d="M196.15,52.92q2.41-2.09,3.81-3.43a15.59,15.59,0,0,0,2.32-2.8,5.37,5.37,0,0,0,.93-2.92,3.56,3.56,0,0,0-.72-2.36,2.75,2.75,0,0,0-2.25-.85,2.89,2.89,0,0,0-2.3.94,3.92,3.92,0,0,0-.86,2.52h-2.77a5.56,5.56,0,0,1,5.91-5.9,5.84,5.84,0,0,1,4.28,1.51,5.35,5.35,0,0,1,1.55,4,7.19,7.19,0,0,1-.92,3.48,14.26,14.26,0,0,1-2.18,3q-1.27,1.32-3.23,3.05l-1.13,1h8v2.39H194.34V54.48Z"/><path class="cls-3" d="M210.81,39.38A6.57,6.57,0,0,1,215,38.07a6.82,6.82,0,0,1,3,.63A4.52,4.52,0,0,1,220,40.41a4.65,4.65,0,0,1,.65,2.43,4.35,4.35,0,0,1-.83,2.67,4,4,0,0,1-2,1.48v.1a4.21,4.21,0,0,1,2.31,1.65,5.23,5.23,0,0,1,.83,3,5.14,5.14,0,0,1-.68,2.64,4.64,4.64,0,0,1-2,1.82,7,7,0,0,1-3.19.67,6.92,6.92,0,0,1-4.46-1.4,5.17,5.17,0,0,1-1.88-4h2.77a3.15,3.15,0,0,0,1,2.18,3.61,3.61,0,0,0,2.51.84,3.16,3.16,0,0,0,2.36-.84,3,3,0,0,0,.83-2.18,2.79,2.79,0,0,0-1.11-2.5,6.37,6.37,0,0,0-3.44-.74h-.65V45.91h.68a6.11,6.11,0,0,0,3.1-.68,2.22,2.22,0,0,0,1.07-2.06,2.49,2.49,0,0,0-.78-1.92,3.72,3.72,0,0,0-4.4,0A3,3,0,0,0,211.8,43H209A4.78,4.78,0,0,1,210.81,39.38Z"/><path class="cls-3" d="M6.4,7.74H11l4.49,11.9h0l4.56-11.9h4.29L16.87,25.9H13.66Z"/><path class="cls-3" d="M26.2,7.74h4V25.9h-4Z"/><path class="cls-3" d="M33.84,7.74h7c3.72,0,6.85,1.28,6.85,5.52a4.67,4.67,0,0,1-3.92,5l4.61,7.67H43.62l-3.8-7.26h-2V25.9h-4Zm4,7.52H40.2c1.47,0,3.36-.06,3.36-2s-1.64-2.1-3.1-2.1H37.84Z"/><path class="cls-3" d="M59.28,7.28c5.67,0,9.8,3.72,9.8,9.54s-4.13,9.54-9.8,9.54-9.79-3.72-9.79-9.54S53.62,7.28,59.28,7.28Zm0,15.39a5.48,5.48,0,0,0,5.65-5.85,5.65,5.65,0,1,0-11.29,0A5.48,5.48,0,0,0,59.28,22.67Z"/><path class="cls-3" d="M72,7.74h4V22.21h7.41V25.9H72Z"/><path class="cls-3" d="M94.39,7.28c5.67,0,9.8,3.72,9.8,9.54s-4.13,9.54-9.8,9.54-9.8-3.72-9.8-9.54S88.72,7.28,94.39,7.28Zm0,15.39A5.48,5.48,0,0,0,100,16.82a5.64,5.64,0,1,0-11.28,0A5.48,5.48,0,0,0,94.39,22.67Z"/><path class="cls-3" d="M123.34,24.62a16.26,16.26,0,0,1-7.61,1.74c-5.67,0-9.8-3.72-9.8-9.54s4.13-9.54,9.8-9.54c2.87,0,5.41.64,7.23,2.33l-2.82,3.08A5.59,5.59,0,0,0,115.73,11a5.49,5.49,0,0,0-5.65,5.85,5.49,5.49,0,0,0,5.65,5.85,7.87,7.87,0,0,0,3.77-.9V18.82h-3.26V15.13h7.1Z"/><path class="cls-3" d="M131.32,18.15,124.5,7.74h5l3.85,6.8,4.08-6.8h4.74l-6.82,10.41V25.9h-4Z"/><path class="cls-2" d="M8.81,38.44h4.63L18,50.51H18l4.63-12.07H27L19.42,56.85H16.17Z"/><path class="cls-2" d="M27.12,38.44h4.63L36.3,50.51h.05L41,38.44h4.34L37.73,56.85H34.48Z"/><path class="cls-2" d="M47.19,38.44h4.06V56.85H47.19Z"/><path class="cls-2" d="M67,43.23a4.34,4.34,0,0,0-3.49-1.51c-3.07,0-5.33,2.49-5.33,5.93s2.26,5.93,5.2,5.93a4.4,4.4,0,0,0,3.8-2l3.38,2.52a8,8,0,0,1-6.66,3.2c-5.74,0-9.93-3.77-9.93-9.67S58.14,38,63.88,38a7.92,7.92,0,0,1,6.22,2.71Z"/><path class="cls-2" d="M77.92,51.94H71.53V48.82h6.39Z"/><path class="cls-2" d="M79.85,52.72,87,46.29c.72-.67,1.63-1.45,1.63-2.57a2.08,2.08,0,0,0-2.26-2A2.34,2.34,0,0,0,84,44.06l-3.9-.29c.23-3.79,2.89-5.64,6.5-5.64,3.35,0,6,1.85,6,5.54a6,6,0,0,1-2.41,4.94l-5.59,4.81h8.16v3.43H79.85Z"/><path class="cls-2" d="M101.66,38.13c5.46,0,6.84,5.15,6.84,9.52s-1.38,9.51-6.84,9.51S94.82,52,94.82,47.65,96.2,38.13,101.66,38.13Zm0,15.45c2.81,0,2.94-4,2.94-5.93s-.13-5.93-2.94-5.93-2.94,4-2.94,5.93S98.85,53.58,101.66,53.58Z"/><path class="cls-2" d="M110.63,52.72l7.15-6.43c.73-.67,1.64-1.45,1.64-2.57a2.08,2.08,0,0,0-2.26-2,2.35,2.35,0,0,0-2.4,2.34l-3.9-.29c.24-3.79,2.89-5.64,6.5-5.64,3.36,0,6,1.85,6,5.54a6,6,0,0,1-2.42,4.94l-5.59,4.81h8.16v3.43H110.63Z"/><path class="cls-2" d="M132.21,45a5.41,5.41,0,0,1,1.27-.18,5.71,5.71,0,0,1,5.78,6c0,3.8-3,6.32-6.87,6.32s-6.86-2.52-6.86-6.32c0-2.65,1-4.26,2.21-6.1l4-6.3h4.76Zm.18,2.78a2.89,2.89,0,1,0,3,2.89A2.82,2.82,0,0,0,132.39,47.8Z"/></svg>