<svg id="Layer_1" data-name="Layer 1" xmlns="http://www.w3.org/2000/svg" viewBox="0 0 291.7 67.97"><defs><style>.cls-1{opacity:0.88;}.cls-2{fill:#93b48e;}.cls-3{fill:#2b3a3b;}</style></defs><g class="cls-1"><rect class="cls-2" x="144.91" y="6.45" width="0.56" height="51.3"/></g><path class="cls-3" d="M153.45,25.18a5.16,5.16,0,0,1-2.21-1.74,4.44,4.44,0,0,1-.81-2.64h3.07a2.79,2.79,0,0,0,.89,1.86,3.2,3.2,0,0,0,2.23.73,3.42,3.42,0,0,0,2.31-.72,2.34,2.34,0,0,0,.83-1.85,2,2,0,0,0-.52-1.43,3.38,3.38,0,0,0-1.28-.85,18.53,18.53,0,0,0-2.12-.66,18.38,18.38,0,0,1-2.78-.92,4.51,4.51,0,0,1-1.82-1.44,4.17,4.17,0,0,1-.76-2.61,4.65,4.65,0,0,1,.76-2.64,4.79,4.79,0,0,1,2.11-1.74,7.68,7.68,0,0,1,3.14-.6,6.53,6.53,0,0,1,4.16,1.27,4.71,4.71,0,0,1,1.8,3.48h-3.17a2.28,2.28,0,0,0-.9-1.63,3.33,3.33,0,0,0-2.19-.68,3.1,3.1,0,0,0-2,.63,2.17,2.17,0,0,0-.78,1.81,1.8,1.8,0,0,0,.49,1.31,3.4,3.4,0,0,0,1.24.82,21.42,21.42,0,0,0,2.06.66,20.12,20.12,0,0,1,2.83,1A4.72,4.72,0,0,1,161.88,18a4.24,4.24,0,0,1,.77,2.65,4.77,4.77,0,0,1-.72,2.52,5.17,5.17,0,0,1-2.08,1.89,6.87,6.87,0,0,1-3.23.72A7.83,7.83,0,0,1,153.45,25.18Z"/><path class="cls-3" d="M168.91,10.47V15.6h6v2.33h-6v5.36h6.78v2.33H166V8.13h9.65v2.34Z"/><path class="cls-3" d="M190.8,15.87a4.65,4.65,0,0,1-2,1.92,7.37,7.37,0,0,1-3.54.75h-3.17v7.08h-2.86V8.16h6a7.65,7.65,0,0,1,3.41.69,4.76,4.76,0,0,1,2.08,1.87,5.15,5.15,0,0,1,.69,2.64A5.36,5.36,0,0,1,190.8,15.87Zm-3.12-.41a2.75,2.75,0,0,0,.8-2.1q0-2.86-3.24-2.87h-3.17V16.2h3.17A3.52,3.52,0,0,0,187.68,15.46Z"/><path class="cls-3" d="M205.45,8.16v2.33H200.8V25.62h-2.87V10.49h-4.67V8.16Z"/><path class="cls-3" d="M211.2,10.47V15.6h6v2.33h-6v5.36H218v2.33h-9.65V8.13H218v2.34Z"/><path class="cls-3" d="M239.9,8.16V25.62H237v-12l-5.33,12h-2l-5.35-12v12h-2.86V8.16h3.09l6.13,13.69,6.11-13.69Z"/><path class="cls-3" d="M255.41,18.13a4.38,4.38,0,0,1,1,2.79,4.32,4.32,0,0,1-.69,2.4,4.65,4.65,0,0,1-2,1.69,7.08,7.08,0,0,1-3,.61h-7V8.16h6.66a7.22,7.22,0,0,1,3.07.6,4.45,4.45,0,0,1,1.93,1.62,4.11,4.11,0,0,1,.66,2.28,3.88,3.88,0,0,1-.81,2.51A4.63,4.63,0,0,1,253,16.65,3.89,3.89,0,0,1,255.41,18.13Zm-8.87-2.64h3.54a3.39,3.39,0,0,0,2.2-.64,2.21,2.21,0,0,0,.79-1.84,2.27,2.27,0,0,0-.79-1.85,3.34,3.34,0,0,0-2.2-.67h-3.54Zm6.15,7.09a2.41,2.41,0,0,0,.83-2,2.52,2.52,0,0,0-.88-2,3.41,3.41,0,0,0-2.33-.76h-3.77v5.46h3.87A3.4,3.4,0,0,0,252.69,22.58Z"/><path class="cls-3" d="M262.37,10.47V15.6h6v2.33h-6v5.36h6.78v2.33H259.5V8.13h9.65v2.34Z"/><path class="cls-3" d="M281.75,25.62l-4-7h-2.18v7h-2.87V8.16h6a7.51,7.51,0,0,1,3.41.7,5,5,0,0,1,2.09,1.88,5.36,5.36,0,0,1-.31,5.75,5,5,0,0,1-3.05,1.89l4.32,7.24Zm-6.21-9.27h3.16a3.3,3.3,0,0,0,2.43-.81,2.89,2.89,0,0,0,.82-2.16,2.78,2.78,0,0,0-.81-2.12,3.42,3.42,0,0,0-2.44-.77h-3.16Z"/><path class="cls-3" d="M152.07,52.44q2.42-2.09,3.81-3.43a15.25,15.25,0,0,0,2.32-2.8,5.37,5.37,0,0,0,.93-2.91,3.57,3.57,0,0,0-.72-2.37,2.75,2.75,0,0,0-2.25-.85,2.89,2.89,0,0,0-2.3.94,3.93,3.93,0,0,0-.86,2.53h-2.77a5.57,5.57,0,0,1,5.91-5.91,5.85,5.85,0,0,1,4.28,1.51,5.36,5.36,0,0,1,1.55,4,7.13,7.13,0,0,1-.92,3.48,14,14,0,0,1-2.18,3Q157.6,51,155.64,52.7l-1.13,1h8v2.39H150.26V54Z"/><path class="cls-3" d="M166.57,52.44Q169,50.36,170.38,49a15.25,15.25,0,0,0,2.32-2.8,5.37,5.37,0,0,0,.93-2.91,3.57,3.57,0,0,0-.72-2.37,2.74,2.74,0,0,0-2.24-.85,2.87,2.87,0,0,0-2.3.94,3.88,3.88,0,0,0-.87,2.53h-2.77a5.58,5.58,0,0,1,5.91-5.91,5.84,5.84,0,0,1,4.28,1.51,5.33,5.33,0,0,1,1.55,4,7.13,7.13,0,0,1-.92,3.48,14,14,0,0,1-2.18,3Q172.1,51,170.14,52.7l-1.13,1h8v2.39H164.76V54Z"/><path class="cls-3" d="M190.49,46v2.41H180.16V46Z"/><path class="cls-3" d="M195.77,52.44q2.41-2.09,3.81-3.43a15.25,15.25,0,0,0,2.32-2.8,5.37,5.37,0,0,0,.93-2.91,3.62,3.62,0,0,0-.71-2.37,2.78,2.78,0,0,0-2.25-.85,2.87,2.87,0,0,0-2.3.94,3.88,3.88,0,0,0-.87,2.53h-2.76a6.15,6.15,0,0,1,10.19-4.4,5.36,5.36,0,0,1,1.54,4,7.12,7.12,0,0,1-.91,3.48,14,14,0,0,1-2.19,3c-.85.88-1.92,1.9-3.23,3.06l-1.13,1h8v2.39H194V54Z"/><path class="cls-3" d="M210.44,38.9a6.56,6.56,0,0,1,4.21-1.31,6.85,6.85,0,0,1,3,.63,4.5,4.5,0,0,1,1.93,1.71,4.57,4.57,0,0,1,.65,2.44,4.32,4.32,0,0,1-.82,2.66,4,4,0,0,1-2,1.48v.1a4.18,4.18,0,0,1,2.31,1.65,5.18,5.18,0,0,1,.83,3.05,5,5,0,0,1-.68,2.64,4.64,4.64,0,0,1-2,1.82,7,7,0,0,1-3.19.67,6.91,6.91,0,0,1-4.46-1.39,5.18,5.18,0,0,1-1.87-4h2.76a3.15,3.15,0,0,0,1,2.17,3.62,3.62,0,0,0,2.52.84,3.16,3.16,0,0,0,2.36-.84,3,3,0,0,0,.83-2.17,2.77,2.77,0,0,0-1.12-2.5,6.25,6.25,0,0,0-3.43-.75h-.66V45.43h.68a6.05,6.05,0,0,0,3.11-.68,2.24,2.24,0,0,0,1.07-2.06,2.49,2.49,0,0,0-.78-1.92,3.15,3.15,0,0,0-2.22-.72,3.1,3.1,0,0,0-2.18.72,2.9,2.9,0,0,0-.93,1.77h-2.79A4.79,4.79,0,0,1,210.44,38.9Z"/><path class="cls-2" d="M7.66,6.85h4.7L17,19.09H17l4.7-12.24h4.4l-7.7,18.68h-3.3Z"/><path class="cls-2" d="M32.78,6.85h3.4l8.13,18.68H39.66l-1.61-4H30.8l-1.56,4H24.7Zm1.58,5.43-2.27,5.81h4.57Z"/><path class="cls-2" d="M58.39,11.7a4.4,4.4,0,0,0-3.53-1.53c-3.11,0-5.41,2.54-5.41,6s2.3,6,5.28,6a4.46,4.46,0,0,0,3.85-2L62,22.76A8.18,8.18,0,0,1,55.25,26c-5.83,0-10.07-3.82-10.07-9.81s4.24-9.82,10.07-9.82a8,8,0,0,1,6.31,2.75Z"/><path class="cls-2" d="M76.46,11.7a4.4,4.4,0,0,0-3.53-1.53c-3.11,0-5.41,2.54-5.41,6s2.3,6,5.28,6a4.46,4.46,0,0,0,3.85-2l3.43,2.56A8.18,8.18,0,0,1,73.32,26c-5.83,0-10.07-3.82-10.07-9.81s4.24-9.82,10.07-9.82a8,8,0,0,1,6.31,2.75Z"/><path class="cls-2" d="M82.27,6.85h4.11V25.53H82.27Z"/><path class="cls-2" d="M90.13,6.85h5.59l7.94,13h0v-13h4.12V25.53h-5.38L94.3,12.23h-.06v13.3H90.13Z"/><path class="cls-2" d="M111.79,6.85h12.69v3.8H115.9v3.48H124v3.8h-8.1v3.8h9v3.8H111.79Z"/><path class="cls-2" d="M137.48,11.41a4,4,0,0,0-3-1.24c-1.16,0-2.77.53-2.77,1.93,0,3.4,8.6,1.21,8.6,7.76,0,4.16-3.35,6.14-7.2,6.14a8.9,8.9,0,0,1-6.28-2.34l2.93-3.22a4.57,4.57,0,0,0,3.58,1.76c1.35,0,2.85-.63,2.85-1.95,0-3.43-8.76-1.58-8.76-7.81,0-4,3.46-6.07,7.13-6.07a8.43,8.43,0,0,1,5.72,2Z"/><path class="cls-2" d="M7.48,38.7h4.69l4.62,12.24h.05l4.7-12.24H26L18.24,57.37h-3.3Z"/><path class="cls-2" d="M26.05,38.7h4.7l4.61,12.24h.06L40.11,38.7h4.41L36.81,57.37H33.52Z"/><path class="cls-2" d="M46.42,38.7h4.11V57.37H46.42Z"/><path class="cls-2" d="M66.49,43.55A4.39,4.39,0,0,0,63,42c-3.12,0-5.41,2.53-5.41,6s2.29,6,5.27,6a4.47,4.47,0,0,0,3.86-2l3.43,2.56a8.16,8.16,0,0,1-6.76,3.25C57.52,57.85,53.27,54,53.27,48s4.25-9.81,10.08-9.81A8,8,0,0,1,69.66,41Z"/><path class="cls-2" d="M77.6,52.39H71.11V49.22H77.6Z"/><path class="cls-2" d="M79.55,53.18l7.25-6.52c.74-.68,1.67-1.47,1.67-2.61a2.12,2.12,0,0,0-2.3-2,2.38,2.38,0,0,0-2.43,2.37l-3.95-.29c.23-3.85,2.92-5.72,6.59-5.72,3.4,0,6,1.87,6,5.62A6.13,6.13,0,0,1,90,49L84.3,53.89h8.28v3.48h-13Z"/><path class="cls-2" d="M101.68,38.38c5.54,0,6.94,5.22,6.94,9.65s-1.4,9.66-6.94,9.66S94.74,52.47,94.74,48,96.14,38.38,101.68,38.38Zm0,15.67c2.85,0,3-4.06,3-6s-.13-6-3-6-3,4.06-3,6S98.83,54.05,101.68,54.05Z"/><path class="cls-2" d="M110.78,53.18,118,46.66c.74-.68,1.66-1.47,1.66-2.61a2.11,2.11,0,0,0-2.3-2A2.37,2.37,0,0,0,115,44.39l-4-.29c.24-3.85,2.93-5.72,6.59-5.72,3.41,0,6,1.87,6,5.62a6.11,6.11,0,0,1-2.46,5l-5.67,4.88h8.28v3.48h-13Z"/><path class="cls-2" d="M132.68,45.37a5,5,0,0,1,1.29-.18,5.79,5.79,0,0,1,5.86,6.09c0,3.85-3.06,6.41-7,6.41s-7-2.56-7-6.41c0-2.69,1-4.33,2.24-6.2l4.09-6.38h4.83Zm.18,2.82a2.93,2.93,0,1,0,3,2.93A2.86,2.86,0,0,0,132.86,48.19Z"/></svg>