<?xml version="1.0" encoding="utf-8"?>
<!-- Generator: Adobe Illustrator 24.3.0, SVG Export Plug-In . SVG Version: 6.00 Build 0)  -->
<svg version="1.1" id="Layer_1" xmlns="http://www.w3.org/2000/svg" xmlns:xlink="http://www.w3.org/1999/xlink" x="0px" y="0px"
	 viewBox="0 0 197.1 65" style="enable-background:new 0 0 197.1 65;" xml:space="preserve">
<style type="text/css">
	.st0{fill:#2F2F2F;}
	.st1{fill:#B21A81;}
	.st2{fill:#FFFFFF;}
	.st3{fill:#3C3E3D;}
	.st4{fill:#31BFC3;}
	.st5{opacity:0.25;}
	.st6{fill:#808080;}
	.st7{fill:none;stroke:#808080;stroke-width:0.3983;stroke-miterlimit:10;}
	.st8{fill:#93B48E;}
	.st9{opacity:0.88;fill:none;stroke:#93B48E;stroke-width:0.914;stroke-miterlimit:10;}
	.st10{fill:#E9A036;}
	.st11{fill:#A95A21;}
	.st12{fill:none;stroke:#DE001C;stroke-width:0.4874;stroke-miterlimit:10;}
	.st13{fill:#1C816E;}
	.st14{fill:#5BB9A4;}
	.st15{fill:#122D24;}
	.st16{fill:#175929;}
	.st17{fill:#80BC27;}
	.st18{fill:#7FBA28;}
	.st19{fill:#7FB829;}
	.st20{fill:#80BC28;}
	.st21{fill:#80BC2A;}
	.st22{fill:#3C7651;}
	.st23{fill:#3B7550;}
	.st24{fill:#80AA94;}
	.st25{fill:#FAFCFC;}
	.st26{fill:#25524A;}
	.st27{fill:#A9A01F;}
	.st28{fill:#23995B;}
	.st29{fill:#1D4479;}
	.st30{fill:none;stroke:#262728;stroke-width:1.0774;stroke-miterlimit:10;}
	.st31{fill:#28378C;}
	.st32{fill:#40A6E2;}
	.st33{fill:#FCCE1C;}
	.st34{fill:none;stroke:#737373;stroke-width:1.11;stroke-miterlimit:10;}
	.st35{fill:#00B9D7;}
	.st36{fill:none;stroke:#FFFFFF;stroke-width:1.5619;stroke-miterlimit:10;}
	.st37{fill:#2B3A3B;}
	.st38{fill:none;stroke:#6E1215;stroke-width:0.6419;stroke-miterlimit:10;}
	.st39{fill:none;stroke:#6E1215;stroke-width:0.4466;stroke-miterlimit:10;}
	.st40{opacity:0.88;fill:none;stroke:#93B48E;stroke-width:0.5596;stroke-miterlimit:10;}
	.st41{fill:none;stroke:#FFFFFF;stroke-width:0.9404;stroke-miterlimit:10;}
	.st42{fill:none;stroke:#737373;stroke-width:0.5012;stroke-miterlimit:10;}
	.st43{fill:none;stroke:#FFFFFF;stroke-width:1.3888;stroke-miterlimit:10;}
	.st44{fill:none;stroke:#737373;stroke-width:0.7403;stroke-miterlimit:10;}
	.st45{fill:none;stroke:#23995B;stroke-width:0.6635;stroke-miterlimit:10;}
	.st46{fill:none;stroke:#23995B;stroke-width:0.3962;stroke-miterlimit:10;}
	.st47{fill:none;stroke:#28378C;stroke-width:2;stroke-miterlimit:10;}
	.st48{fill:none;stroke:#28378C;stroke-width:1.0909;stroke-miterlimit:10;}
	.st49{fill:#96AFCE;}
	.st50{fill:#3B3888;}
	.st51{fill:#F2F3F1;}
	.st52{fill:#F2F3F2;}
	.st53{fill:#F1F6F2;}
	.st54{fill:#EFF2F0;}
	.st55{fill:#DFE8E2;}
	.st56{fill:#EDF0EC;}
	.st57{fill:#3CA835;}
	.st58{fill:none;stroke:#DE001C;stroke-width:0.451;stroke-miterlimit:10;}
	.st59{fill:none;stroke:#DE001C;stroke-width:0.1983;stroke-miterlimit:10;}
	.st60{fill:none;stroke:#DE001C;stroke-width:0.3536;stroke-miterlimit:10;}
	.st61{fill:none;stroke:#808080;stroke-width:0.3418;stroke-miterlimit:10;}
	.st62{fill:none;stroke:#808080;stroke-width:0.2279;stroke-miterlimit:10;}
	.st63{fill:#020201;}
	.st64{fill:#37B2B5;}
	.st65{fill:#000100;}
	.st66{fill:none;stroke:#C85119;stroke-width:0.8469;stroke-miterlimit:10;}
	.st67{fill:#C85119;}
	.st68{fill:#1A1718;}
	.st69{fill:none;stroke:#96AFCE;stroke-width:0.5236;stroke-miterlimit:10;}
	.st70{fill:none;stroke:#808080;stroke-width:0.736;stroke-miterlimit:10;}
	.st71{fill:none;stroke:#25524A;stroke-width:1.193;stroke-miterlimit:10;}
	.st72{fill:#37B2B5;stroke:#37B2B5;stroke-width:0.6822;stroke-miterlimit:10;}
	.st73{fill:#737373;}
	.st74{fill:#0B4485;}
	.st75{fill:none;stroke:#262728;stroke-width:1.1895;stroke-miterlimit:10;}
	.st76{fill:#6E1215;}
	.st77{opacity:0.88;}
	.st78{fill:#DE001C;}
	.st79{fill:#DF001B;}
	.st80{fill:#020201;stroke:#FFFFFF;stroke-width:0.5409;stroke-miterlimit:10;}
	.st81{fill:#DF001B;stroke:#FFFFFF;stroke-width:0.5409;stroke-miterlimit:10;}
	.st82{fill:#FFFFFF;stroke:#FFFFFF;stroke-width:2;stroke-miterlimit:10;}
	.st83{fill:#23985B;}
	.st84{fill:#262728;}
	.st85{fill:none;stroke:#FFFFFF;stroke-width:1.6144;stroke-miterlimit:10;}
	.st86{fill:none;stroke:#737373;stroke-width:0.7652;stroke-miterlimit:10;}
	.st87{fill:none;stroke:#808080;stroke-width:0.3675;stroke-miterlimit:10;}
	.st88{fill:none;stroke:#40A6E2;stroke-width:1.408;stroke-miterlimit:10;}
	.st89{fill:#DF001B;stroke:#FFFFFF;stroke-width:0.4562;stroke-miterlimit:10;}
	.st90{fill:#1A1818;}
</style>
<g>
	<g>
		<path class="st31" d="M120.5,28.2c0.1,0.3,0.1,0.6,0,0.9c-0.1,0.3-0.3,0.5-0.6,0.6c-0.1,0.1-0.3,0.1-0.4,0.1
			c-0.2,0-0.4-0.1-0.6-0.2c-0.2-0.1-0.3-0.3-0.4-0.5l-2-5h-6.8l-2,5c-0.1,0.3-0.3,0.5-0.6,0.6c-0.3,0.1-0.6,0.1-0.9,0
			s-0.5-0.3-0.6-0.6c-0.1-0.3-0.1-0.6,0-0.9l6.5-16.1c0.1-0.2,0.2-0.4,0.4-0.5c0.2-0.1,0.4-0.2,0.6-0.2c0.2,0,0.4,0.1,0.6,0.2
			c0.2,0.1,0.3,0.3,0.4,0.5L120.5,28.2z M115.4,21.8l-2.5-6.2l-2.5,6.2H115.4z"/>
		<path class="st31" d="M132.9,11.4c0.3,0,0.6,0.1,0.8,0.3c0.2,0.2,0.3,0.5,0.3,0.8v11.3c0,1.6-0.6,3-1.7,4.2
			c-1.2,1.2-2.5,1.7-4.2,1.7c-1.6,0-3-0.6-4.2-1.7c-1.1-1.2-1.7-2.5-1.7-4.2V12.6c0-0.3,0.1-0.6,0.3-0.8c0.2-0.2,0.5-0.3,0.8-0.3
			c0.3,0,0.6,0.1,0.8,0.3c0.2,0.2,0.3,0.5,0.3,0.8v11.3c0,1,0.4,1.9,1.1,2.6c0.7,0.7,1.6,1.1,2.5,1.1c1,0,1.8-0.4,2.6-1.1
			c0.7-0.7,1.1-1.6,1.1-2.6V12.6c0-0.3,0.1-0.6,0.3-0.8C132.3,11.5,132.6,11.4,132.9,11.4z"/>
		<path class="st31" d="M152.2,20.1c0.3,0,0.6,0.1,0.8,0.3c0.2,0.2,0.3,0.5,0.3,0.8v3c0,1.8-1,3.2-3,4.3c-1.5,0.8-3.3,1.2-5.2,1.2
			c-2.5,0-4.6-0.9-6.4-2.7c-1.8-1.8-2.6-3.9-2.6-6.5c0-2.5,0.9-4.7,2.6-6.5c1.8-1.8,3.9-2.7,6.4-2.7c1.7,0,3.3,0.4,4.7,1.3
			c1.4,0.9,2.5,2.1,3.3,3.7c0.1,0.2,0.1,0.3,0.1,0.5c0,0.1,0,0.2-0.1,0.4c-0.1,0.3-0.3,0.5-0.6,0.7c-0.2,0.1-0.3,0.1-0.5,0.1
			c-0.1,0-0.2,0-0.4-0.1c-0.3-0.1-0.5-0.3-0.7-0.6c-0.6-1.2-1.4-2.1-2.5-2.7c-1.1-0.7-2.2-1-3.5-1c-1.9,0-3.4,0.7-4.8,2
			c-1.3,1.4-2,3-2,4.9c0,1.9,0.7,3.5,2,4.9c1.3,1.3,2.9,2,4.8,2c1.4,0,2.7-0.3,3.9-0.8c1.3-0.6,2-1.4,2-2.4v-1.9h-5.4
			c-0.3,0-0.6-0.1-0.8-0.3c-0.2-0.2-0.3-0.5-0.3-0.8c0-0.3,0.1-0.6,0.3-0.8c0.2-0.2,0.5-0.3,0.8-0.3H152.2z"/>
		<path class="st31" d="M166.1,11.4c0.3,0,0.6,0.1,0.8,0.3c0.2,0.2,0.3,0.5,0.3,0.8v11.3c0,1.6-0.6,3-1.7,4.2
			c-1.2,1.2-2.5,1.7-4.2,1.7c-1.6,0-3-0.6-4.2-1.7c-1.1-1.2-1.7-2.5-1.7-4.2V12.6c0-0.3,0.1-0.6,0.3-0.8c0.2-0.2,0.5-0.3,0.8-0.3
			c0.3,0,0.6,0.1,0.8,0.3c0.2,0.2,0.3,0.5,0.3,0.8v11.3c0,1,0.4,1.9,1.1,2.6c0.7,0.7,1.6,1.1,2.5,1.1c1,0,1.8-0.4,2.6-1.1
			c0.7-0.7,1.1-1.6,1.1-2.6V12.6c0-0.3,0.1-0.6,0.3-0.8C165.5,11.5,165.8,11.4,166.1,11.4z"/>
		<path class="st31" d="M171.7,28.7c-1-0.7-1.8-1.6-2.2-2.7c-0.1-0.3-0.1-0.6,0-0.8c0.1-0.3,0.3-0.5,0.6-0.6c0.3-0.1,0.6-0.1,0.8,0
			c0.3,0.1,0.5,0.3,0.6,0.6c0.3,0.7,0.8,1.3,1.4,1.7c0.7,0.4,1.4,0.7,2.2,0.7c0.9,0,1.7-0.3,2.3-0.9c0.6-0.6,1-1.3,1-2.1
			c0-0.9-0.3-1.5-0.8-1.9c-0.5-0.3-1.4-0.7-2.8-1.1c-1.6-0.4-2.7-0.9-3.4-1.4c-1.2-0.9-1.8-2.1-1.8-3.7c0-1.4,0.5-2.6,1.6-3.6
			c1.1-1,2.4-1.5,3.9-1.5c1.3,0,2.4,0.4,3.4,1.1c1,0.7,1.6,1.7,2,2.9c0.1,0.3,0.1,0.6-0.1,0.8c-0.1,0.3-0.4,0.4-0.7,0.5
			c-0.3,0.1-0.6,0.1-0.8-0.1c-0.3-0.1-0.4-0.4-0.5-0.7c-0.2-0.8-0.6-1.3-1.2-1.8c-0.6-0.4-1.3-0.7-2.1-0.7c-0.9,0-1.7,0.3-2.3,0.9
			c-0.6,0.6-1,1.3-1,2.1c0,0.8,0.3,1.5,0.8,1.9c0.4,0.3,1.4,0.7,2.7,1.1c1.6,0.4,2.7,0.9,3.4,1.4c1.2,0.9,1.8,2.1,1.8,3.7
			c0,1.4-0.5,2.6-1.6,3.6s-2.4,1.5-3.9,1.5C173.9,29.8,172.7,29.4,171.7,28.7z"/>
		<path class="st31" d="M192.7,11.4c0.3,0,0.6,0.1,0.8,0.3c0.2,0.2,0.3,0.5,0.3,0.8s-0.1,0.6-0.3,0.8c-0.2,0.2-0.5,0.3-0.8,0.3h-3.9
			v14.9c0,0.3-0.1,0.6-0.3,0.8c-0.2,0.2-0.5,0.3-0.8,0.3c-0.3,0-0.6-0.1-0.8-0.3c-0.2-0.2-0.3-0.5-0.3-0.8V13.7h-3.9
			c-0.3,0-0.6-0.1-0.8-0.3c-0.2-0.2-0.3-0.5-0.3-0.8s0.1-0.6,0.3-0.8c0.2-0.2,0.5-0.3,0.8-0.3H192.7z"/>
		<path class="st31" d="M112.2,37.5c1.6,0,3,0.6,4.2,1.7c1.2,1.2,1.7,2.5,1.7,4.2v5.5c0,1.6-0.6,3-1.7,4.2c-1.2,1.2-2.5,1.7-4.2,1.7
			c-1.6,0-3-0.6-4.2-1.7c-1.2-1.2-1.7-2.5-1.7-4.2v-5.5c0-1.6,0.6-3,1.7-4.2C109.2,38.1,110.6,37.5,112.2,37.5z M116,43.4
			c0-1-0.4-1.9-1.1-2.7c-0.7-0.7-1.6-1.1-2.7-1.1s-1.9,0.4-2.7,1.1c-0.7,0.7-1.1,1.6-1.1,2.7v5.5c0,1,0.4,1.9,1.1,2.7
			c0.7,0.7,1.6,1.1,2.7,1.1s1.9-0.4,2.7-1.1c0.7-0.7,1.1-1.6,1.1-2.7V43.4z"/>
		<path class="st31" d="M126.2,43.1c1.6,0,3,0.6,4.1,1.7c1.1,1.1,1.7,2.5,1.7,4.1s-0.6,3-1.7,4.1c-1.1,1.1-2.5,1.7-4.1,1.7
			c-1.6,0-3-0.6-4.1-1.7c-1.1-1.1-1.7-2.5-1.7-4.1c0-1.2,0.4-2.4,1.1-3.4l4.6-7.6c0.2-0.3,0.4-0.4,0.7-0.5c0.1,0,0.2,0,0.3,0
			c0.2,0,0.4,0.1,0.5,0.2c0.3,0.2,0.4,0.4,0.5,0.7c0,0.1,0,0.2,0,0.3c0,0.2-0.1,0.4-0.2,0.5l-2.5,4C125.7,43.1,126,43.1,126.2,43.1z
			 M126.2,52.6c1,0,1.9-0.4,2.6-1.1c0.7-0.7,1.1-1.6,1.1-2.6c0-1-0.4-1.9-1.1-2.6c-0.7-0.7-1.6-1.1-2.6-1.1c-1,0-1.9,0.4-2.6,1.1
			c-0.7,0.7-1.1,1.6-1.1,2.6c0,1,0.4,1.9,1.1,2.6C124.3,52.3,125.2,52.6,126.2,52.6z"/>
		<path class="st31" d="M143.9,45.1c0.3,0,0.5,0.1,0.8,0.3c0.2,0.2,0.3,0.5,0.3,0.8c0,0.3-0.1,0.5-0.3,0.8c-0.2,0.2-0.5,0.3-0.8,0.3
			h-8.5c-0.3,0-0.6-0.1-0.8-0.3c-0.2-0.2-0.3-0.5-0.3-0.8c0-0.3,0.1-0.6,0.3-0.8c0.2-0.2,0.5-0.3,0.8-0.3H143.9z"/>
		<path class="st31" d="M153.1,37.5c1.6,0,3,0.6,4.2,1.7c1.2,1.2,1.7,2.5,1.7,4.2v5.5c0,1.6-0.6,3-1.7,4.2c-1.2,1.2-2.5,1.7-4.2,1.7
			c-1.6,0-3-0.6-4.2-1.7c-1.2-1.2-1.7-2.5-1.7-4.2v-5.5c0-1.6,0.6-3,1.7-4.2C150.1,38.1,151.5,37.5,153.1,37.5z M156.9,43.4
			c0-1-0.4-1.9-1.1-2.7c-0.7-0.7-1.6-1.1-2.7-1.1s-1.9,0.4-2.7,1.1c-0.7,0.7-1.1,1.6-1.1,2.7v5.5c0,1,0.4,1.9,1.1,2.7
			c0.7,0.7,1.6,1.1,2.7,1.1s1.9-0.4,2.7-1.1c0.7-0.7,1.1-1.6,1.1-2.7V43.4z"/>
		<path class="st31" d="M172.1,37.5c0.4,0,0.7,0.2,0.9,0.5c0.1,0.2,0.2,0.4,0.2,0.5c0,0.2,0,0.3-0.1,0.5l-7.6,15.1
			c-0.2,0.4-0.5,0.6-1,0.6c-0.2,0-0.3,0-0.5-0.1c-0.3-0.1-0.4-0.3-0.5-0.6c0-0.1-0.1-0.2-0.1-0.3c0-0.2,0-0.3,0.1-0.5l6.8-13.6h-8
			c-0.3,0-0.6-0.1-0.8-0.3c-0.2-0.2-0.3-0.5-0.3-0.8s0.1-0.5,0.3-0.8c0.2-0.2,0.5-0.3,0.8-0.3H172.1z"/>
	</g>
	<g>
		<rect x="95.9" y="7.7" class="st31" width="2" height="50.6"/>
	</g>
	<g>
		<path class="st31" d="M23.8,9c0.2,0.3,0.3,0.6,0.3,0.9V30c0,0.4-0.1,0.7-0.4,1c-0.3,0.3-0.6,0.4-1,0.4c-0.4,0-0.7-0.1-1-0.4
			c-0.3-0.3-0.4-0.6-0.4-1V16.4c-0.9,2.7-1.8,5.2-2.7,7.4l-2.7,6.7c-0.2,0.6-0.7,0.9-1.3,0.9s-1.1-0.3-1.3-0.9l-2.7-6.7
			c-0.9-2.2-1.8-4.6-2.7-7.3V30c0,0.4-0.1,0.7-0.4,1c-0.3,0.3-0.6,0.4-1,0.4c-0.4,0-0.7-0.1-1-0.4C5.1,30.7,5,30.4,5,30V9.9
			C5,9.5,5.1,9.2,5.3,9c0.2-0.3,0.5-0.4,0.8-0.5c0.1,0,0.2,0,0.3,0c0.2,0,0.5,0.1,0.7,0.2C7.4,8.8,7.6,9,7.7,9.3
			c3.4,8.4,5.7,14.2,6.8,17.4c1.1-3.2,3.4-9,6.8-17.4C21.5,9,21.7,8.8,22,8.6c0.2-0.1,0.4-0.2,0.7-0.2c0.1,0,0.2,0,0.3,0
			C23.3,8.5,23.6,8.7,23.8,9z"/>
		<path class="st31" d="M40.9,8.5c0.4,0,0.7,0.1,1,0.4c0.3,0.3,0.4,0.6,0.4,1V30c0,0.7-0.3,1.2-1,1.4c-0.2,0-0.3,0.1-0.5,0.1
			c-0.5,0-0.8-0.2-1.1-0.7c-4.5-7.8-7.5-13.2-9-16.3V30c0,0.4-0.1,0.7-0.4,1c-0.3,0.3-0.6,0.4-1,0.4c-0.4,0-0.7-0.1-1-0.4
			c-0.3-0.3-0.4-0.6-0.4-1V9.9c0-0.7,0.3-1.2,1-1.4c0.2,0,0.3-0.1,0.5-0.1c0.5,0,0.9,0.2,1.1,0.7c4.5,7.8,7.5,13.1,9,16.1V9.9
			c0-0.4,0.1-0.7,0.4-1C40.1,8.7,40.5,8.5,40.9,8.5z"/>
		<path class="st31" d="M59,8.5c0.4,0,0.7,0.1,1,0.4c0.3,0.3,0.4,0.6,0.4,1V30c0,0.7-0.3,1.2-1,1.4c-0.2,0-0.3,0.1-0.5,0.1
			c-0.5,0-0.8-0.2-1.1-0.7c-4.5-7.8-7.5-13.2-9-16.3V30c0,0.4-0.1,0.7-0.4,1c-0.3,0.3-0.6,0.4-1,0.4c-0.4,0-0.7-0.1-1-0.4
			c-0.3-0.3-0.4-0.6-0.4-1V9.9c0-0.7,0.3-1.2,1-1.4c0.2,0,0.3-0.1,0.5-0.1c0.5,0,0.9,0.2,1.1,0.7c4.5,7.8,7.5,13.1,9,16.1V9.9
			c0-0.4,0.1-0.7,0.4-1C58.3,8.7,58.6,8.5,59,8.5z"/>
		<path class="st31" d="M74.9,11.4c-2.3,0-4.3,0.8-6,2.5c-1.7,1.7-2.5,3.7-2.5,6.1c0,2.4,0.8,4.4,2.5,6.1c1.6,1.7,3.6,2.5,6,2.5
			c1.4,0,2.7-0.3,3.9-1c1.2-0.7,2.2-1.6,3-2.8c0.2-0.3,0.5-0.5,0.9-0.6c0.1,0,0.2,0,0.3,0c0.3,0,0.5,0.1,0.8,0.2
			c0.3,0.2,0.5,0.5,0.6,0.9c0,0.1,0,0.2,0,0.3c0,0.3-0.1,0.5-0.2,0.8c-1.1,1.6-2.4,2.8-4.1,3.7c-1.7,0.9-3.4,1.3-5.3,1.3
			c-3.1,0-5.8-1.1-8-3.4c-2.2-2.2-3.3-4.9-3.3-8.1c0-3.2,1.1-5.9,3.3-8.1c2.2-2.2,4.8-3.4,8-3.4c1.9,0,3.6,0.5,5.3,1.4
			c1.6,0.9,3,2.1,4.1,3.7c0.2,0.2,0.2,0.5,0.2,0.8c0,0.1,0,0.2,0,0.3c-0.1,0.4-0.3,0.7-0.6,0.9c-0.2,0.2-0.5,0.2-0.8,0.2
			c-0.1,0-0.2,0-0.3,0c-0.4-0.1-0.7-0.3-0.9-0.6c-0.8-1.2-1.8-2.1-3-2.8C77.6,11.7,76.3,11.4,74.9,11.4z"/>
		<path class="st31" d="M17.3,54.9c0.4,0,0.7,0.1,0.9,0.4c0.2,0.2,0.4,0.5,0.4,0.9s-0.1,0.7-0.4,0.9s-0.5,0.4-0.9,0.4H6
			c-0.6,0-1-0.3-1.2-0.8c-0.1-0.2-0.1-0.4-0.1-0.5c0-0.3,0.1-0.6,0.4-0.9l8.7-8.6c1.1-1,1.6-2.1,1.6-3.3s-0.4-2.1-1.2-2.9
			c-0.8-0.8-1.8-1.2-2.9-1.2s-2.1,0.4-2.9,1.2c-0.8,0.8-1.2,1.8-1.2,2.9c0,0.4-0.1,0.7-0.4,0.9c-0.2,0.2-0.5,0.4-0.9,0.4
			s-0.7-0.1-0.9-0.4c-0.3-0.2-0.4-0.5-0.4-0.9c0-1.8,0.7-3.4,2-4.7c1.3-1.3,2.9-2,4.7-2s3.4,0.7,4.7,2c1.3,1.3,1.9,2.9,1.9,4.7
			c0,1.9-0.8,3.6-2.4,5.1l-6.5,6.4H17.3z"/>
		<path class="st31" d="M34,36.8c2,0,3.6,0.7,5,2.1c1.4,1.4,2.1,3,2.1,5v6.5c0,2-0.7,3.6-2.1,5c-1.4,1.4-3,2.1-5,2.1
			c-1.9,0-3.6-0.7-5-2.1c-1.4-1.4-2.1-3-2.1-5v-6.5c0-2,0.7-3.6,2.1-5C30.4,37.5,32,36.8,34,36.8z M38.5,43.9c0-1.2-0.4-2.3-1.3-3.2
			c-0.9-0.9-1.9-1.3-3.2-1.3s-2.3,0.4-3.2,1.3c-0.9,0.9-1.3,1.9-1.3,3.2v6.5c0,1.2,0.4,2.3,1.3,3.2c0.9,0.9,1.9,1.3,3.2,1.3
			s2.3-0.4,3.2-1.3c0.9-0.9,1.3-1.9,1.3-3.2V43.9z"/>
		<path class="st31" d="M62.2,54.9c0.4,0,0.7,0.1,0.9,0.4c0.2,0.2,0.4,0.5,0.4,0.9s-0.1,0.7-0.4,0.9s-0.5,0.4-0.9,0.4H50.9
			c-0.6,0-1-0.3-1.2-0.8c-0.1-0.2-0.1-0.4-0.1-0.5c0-0.3,0.1-0.6,0.4-0.9l8.7-8.6c1.1-1,1.6-2.1,1.6-3.3s-0.4-2.1-1.2-2.9
			c-0.8-0.8-1.8-1.2-2.9-1.2s-2.1,0.4-2.9,1.2c-0.8,0.8-1.2,1.8-1.2,2.9c0,0.4-0.1,0.7-0.4,0.9c-0.2,0.2-0.5,0.4-0.9,0.4
			s-0.7-0.1-0.9-0.4c-0.3-0.2-0.4-0.5-0.4-0.9c0-1.8,0.7-3.4,2-4.7c1.3-1.3,2.9-2,4.7-2s3.4,0.7,4.7,2c1.3,1.3,1.9,2.9,1.9,4.7
			c0,1.9-0.8,3.6-2.4,5.1L54,54.9H62.2z"/>
		<path class="st31" d="M78.2,43.5c1.9,0,3.6,0.7,4.9,2.1c1.4,1.4,2,3,2,4.9s-0.7,3.6-2,4.9c-1.4,1.4-3,2-4.9,2
			c-1.3,0-2.5-0.3-3.6-1c-1.1-0.7-2-1.5-2.6-2.7c-0.1-0.2-0.2-0.4-0.2-0.6c0-0.1,0-0.3,0.1-0.4c0.1-0.3,0.3-0.6,0.6-0.8
			c0.2-0.1,0.4-0.2,0.6-0.2c0.1,0,0.2,0,0.4,0.1c0.3,0.1,0.6,0.3,0.8,0.6c0.4,0.7,0.9,1.3,1.6,1.7c0.7,0.4,1.4,0.6,2.3,0.6
			c1.2,0,2.3-0.4,3.1-1.3c0.9-0.9,1.3-1.9,1.3-3.1c0-1.2-0.4-2.3-1.3-3.1c-0.9-0.9-1.9-1.3-3.1-1.3s-2.3,0.4-3.1,1.3
			c-0.3,0.3-0.7,0.3-1.1,0.2s-0.7-0.3-0.9-0.5s-0.2-0.5-0.2-0.8l1.2-8.4c0-0.3,0.2-0.6,0.4-0.8c0.2-0.2,0.5-0.3,0.8-0.3h7.2
			c0.4,0,0.7,0.1,0.9,0.4c0.2,0.2,0.4,0.5,0.4,0.9s-0.1,0.7-0.4,0.9c-0.3,0.3-0.6,0.4-0.9,0.4h-6.1l-0.7,4.5
			C76.5,43.6,77.3,43.5,78.2,43.5z"/>
	</g>
</g>
</svg>
