<svg id="Layer_1" data-name="Layer 1" xmlns="http://www.w3.org/2000/svg" viewBox="0 0 108.25 36.73"><defs><style>.cls-1{opacity:0.88;}.cls-2{fill:#93b48e;}.cls-3{fill:#2b3a3b;}</style></defs><g class="cls-1"><rect class="cls-2" x="2.65" y="21.45" width="102.96" height="0.56"/></g><path class="cls-3" d="M5.22,32.08A3.36,3.36,0,0,1,4,30.82,3.79,3.79,0,0,1,4,27.2a3.36,3.36,0,0,1,1.25-1.26A3.48,3.48,0,0,1,7,25.49a3.49,3.49,0,0,1,1.76.45A3.24,3.24,0,0,1,10,27.19a3.83,3.83,0,0,1,0,3.64,3.24,3.24,0,0,1-1.24,1.25A3.49,3.49,0,0,1,7,32.53,3.48,3.48,0,0,1,5.22,32.08Zm3.05-.67a2.28,2.28,0,0,0,.91-1A3,3,0,0,0,9.51,29a3,3,0,0,0-.33-1.45,2.32,2.32,0,0,0-.91-.95,2.66,2.66,0,0,0-2.6,0,2.38,2.38,0,0,0-.91.95A3,3,0,0,0,4.43,29a3,3,0,0,0,.33,1.44,2.35,2.35,0,0,0,.91,1,2.66,2.66,0,0,0,2.6,0Z"/><path class="cls-3" d="M11.73,27.2A3.26,3.26,0,0,1,13,25.94a3.35,3.35,0,0,1,1.74-.46,3.5,3.5,0,0,1,2,.55,3,3,0,0,1,1.22,1.54H16.83a2.12,2.12,0,0,0-.83-1,2.43,2.43,0,0,0-1.29-.34,2.53,2.53,0,0,0-1.29.34,2.36,2.36,0,0,0-.9.95A3,3,0,0,0,12.2,29a3,3,0,0,0,.32,1.44,2.36,2.36,0,0,0,.9.95,2.53,2.53,0,0,0,1.29.34A2.34,2.34,0,0,0,16,31.4a2.09,2.09,0,0,0,.83-.95H17.9A3.05,3.05,0,0,1,16.68,32a3.57,3.57,0,0,1-2,.54A3.45,3.45,0,0,1,13,32.07a3.31,3.31,0,0,1-1.24-1.25,3.87,3.87,0,0,1,0-3.62Z"/><path class="cls-3" d="M23.47,25.57v.73H21.6v6.16h-.9V26.3H18.81v-.73Z"/><path class="cls-3" d="M26,32.08a3.36,3.36,0,0,1-1.25-1.26,3.79,3.79,0,0,1,0-3.62A3.36,3.36,0,0,1,26,25.94a3.65,3.65,0,0,1,3.51,0,3.24,3.24,0,0,1,1.24,1.25,3.83,3.83,0,0,1,0,3.64,3.24,3.24,0,0,1-1.24,1.25,3.65,3.65,0,0,1-3.51,0ZM29,31.41a2.28,2.28,0,0,0,.91-1A3,3,0,0,0,30.24,29a3,3,0,0,0-.33-1.45,2.32,2.32,0,0,0-.91-.95,2.66,2.66,0,0,0-2.6,0,2.38,2.38,0,0,0-.91.95A3,3,0,0,0,25.16,29a3,3,0,0,0,.33,1.44,2.35,2.35,0,0,0,.91,1,2.66,2.66,0,0,0,2.6,0Z"/><path class="cls-3" d="M36.48,29.22a1.84,1.84,0,0,1,.49.61,1.72,1.72,0,0,1,.18.78,1.77,1.77,0,0,1-.26.94,1.82,1.82,0,0,1-.78.66,2.65,2.65,0,0,1-1.2.25H32.34V25.57h2.47a2.89,2.89,0,0,1,1.2.23,1.78,1.78,0,0,1,.74.63,1.7,1.7,0,0,1,.25.89,1.52,1.52,0,0,1-.34,1,1.84,1.84,0,0,1-.87.58A1.44,1.44,0,0,1,36.48,29.22Zm-3.24-.67h1.51a1.45,1.45,0,0,0,1-.3,1.14,1.14,0,0,0,0-1.64,1.48,1.48,0,0,0-1-.3H33.24Zm2.64,2.85a1.08,1.08,0,0,0,.37-.88,1.12,1.12,0,0,0-.39-.9,1.6,1.6,0,0,0-1.06-.33H33.24v2.42h1.59A1.58,1.58,0,0,0,35.88,31.4Z"/><path class="cls-3" d="M39.3,26.3v2.3h2.5v.74H39.3v2.37h2.8v.75H38.4v-6.9h3.7v.74Z"/><path class="cls-3" d="M47.09,32.46l-1.64-2.82H44.36v2.82h-.9V25.57h2.23a2.86,2.86,0,0,1,1.31.27,1.91,1.91,0,0,1,.81.72,2,2,0,0,1,.27,1,2,2,0,0,1-.41,1.25,2.06,2.06,0,0,1-1.23.72l1.72,2.89Zm-2.73-3.54h1.33a1.49,1.49,0,0,0,1.09-.36,1.27,1.27,0,0,0,.37-1,1.23,1.23,0,0,0-.36-1,1.54,1.54,0,0,0-1.1-.34H44.36Z"/><path class="cls-3" d="M52.51,26.16a2.44,2.44,0,0,1,3.86,0,5.3,5.3,0,0,1,.56,2.65,5.42,5.42,0,0,1-.56,2.69,2.42,2.42,0,0,1-3.86,0A5.42,5.42,0,0,1,52,28.81,5.31,5.31,0,0,1,52.51,26.16Zm3.41,1.19a1.88,1.88,0,0,0-.46-1,1.34,1.34,0,0,0-1-.36,1.39,1.39,0,0,0-1,.36,2,2,0,0,0-.46,1,7.68,7.68,0,0,0-.11,1.46A7.89,7.89,0,0,0,53,30.3a1.88,1.88,0,0,0,.46,1,1.39,1.39,0,0,0,1,.37,1.34,1.34,0,0,0,1-.37,1.8,1.8,0,0,0,.46-1A7.79,7.79,0,0,0,56,28.81,7.6,7.6,0,0,0,55.92,27.35Z"/><path class="cls-3" d="M59.77,31.41a1.49,1.49,0,0,0,1,.3A1.32,1.32,0,0,0,62,31.07a4.3,4.3,0,0,0,.37-2.16,1.51,1.51,0,0,1-.69.7,2.45,2.45,0,0,1-1.08.25,2.53,2.53,0,0,1-1.18-.27,2,2,0,0,1-.82-.8,2.61,2.61,0,0,1-.29-1.26,2.39,2.39,0,0,1,.61-1.71,2.29,2.29,0,0,1,1.74-.64,2.1,2.1,0,0,1,1.94.9,5.13,5.13,0,0,1,.56,2.67,8.37,8.37,0,0,1-.22,2.06,2.06,2.06,0,0,1-2.2,1.66,2.13,2.13,0,0,1-1.57-.55,2.08,2.08,0,0,1-.64-1.38h.83A1.36,1.36,0,0,0,59.77,31.41Zm2-2.72a1.44,1.44,0,0,0,.43-1.11,1.69,1.69,0,0,0-.42-1.2,1.48,1.48,0,0,0-1.16-.45,1.43,1.43,0,0,0-1.1.43,1.57,1.57,0,0,0-.41,1.15,1.61,1.61,0,0,0,.4,1.15,1.53,1.53,0,0,0,1.18.44A1.49,1.49,0,0,0,61.79,28.69Z"/><path class="cls-3" d="M68.28,28.46v.76H64.34v-.76Z"/><path class="cls-3" d="M69.59,26.13v-.81h1.85v7.14h-.91V26.13Z"/><path class="cls-3" d="M73.54,26.16a2.44,2.44,0,0,1,3.86,0A5.31,5.31,0,0,1,78,28.81a5.42,5.42,0,0,1-.55,2.69,2.42,2.42,0,0,1-3.86,0A5.42,5.42,0,0,1,73,28.81,5.3,5.3,0,0,1,73.54,26.16ZM77,27.35a1.89,1.89,0,0,0-.47-1,1.61,1.61,0,0,0-2,0,1.88,1.88,0,0,0-.46,1,7.6,7.6,0,0,0-.12,1.46A7.79,7.79,0,0,0,74,30.3a1.8,1.8,0,0,0,.46,1,1.58,1.58,0,0,0,2,0,1.81,1.81,0,0,0,.47-1,8.82,8.82,0,0,0,.11-1.49A8.61,8.61,0,0,0,77,27.35Z"/><path class="cls-3" d="M80.26,31.21l-1.1,2.66h-.61l.72-2.66Z"/><path class="cls-3" d="M85.64,30.08a8.31,8.31,0,0,0,1.2-1.35,2.48,2.48,0,0,0,.48-1.39,1.49,1.49,0,0,0-.31-1A1.22,1.22,0,0,0,86,26a1.31,1.31,0,0,0-1,.42,1.73,1.73,0,0,0-.4,1.12H83.7a2.39,2.39,0,0,1,.67-1.71,2.57,2.57,0,0,1,3.25,0,2.06,2.06,0,0,1,.59,1.55,2.94,2.94,0,0,1-.49,1.6,6.73,6.73,0,0,1-1.11,1.36c-.41.39-.94.85-1.59,1.37h3.4v.75H83.67v-.64C84.51,31.06,85.16,30.51,85.64,30.08Z"/><path class="cls-3" d="M90,26.16a2.44,2.44,0,0,1,3.86,0,5.3,5.3,0,0,1,.56,2.65,5.42,5.42,0,0,1-.56,2.69,2.42,2.42,0,0,1-3.86,0,5.42,5.42,0,0,1-.55-2.69A5.31,5.31,0,0,1,90,26.16Zm3.41,1.19a1.88,1.88,0,0,0-.46-1A1.34,1.34,0,0,0,92,26a1.39,1.39,0,0,0-1,.36,2,2,0,0,0-.46,1,7.68,7.68,0,0,0-.11,1.46,7.89,7.89,0,0,0,.11,1.49,1.88,1.88,0,0,0,.46,1,1.39,1.39,0,0,0,1,.37,1.34,1.34,0,0,0,1-.37,1.8,1.8,0,0,0,.46-1,7.79,7.79,0,0,0,.12-1.49A7.6,7.6,0,0,0,93.42,27.35Z"/><path class="cls-3" d="M97.52,30.08a8.31,8.31,0,0,0,1.2-1.35,2.5,2.5,0,0,0,.49-1.39,1.49,1.49,0,0,0-.32-1,1.22,1.22,0,0,0-1-.37,1.31,1.31,0,0,0-1,.42,1.73,1.73,0,0,0-.4,1.12h-.87a2.39,2.39,0,0,1,.67-1.71,2.57,2.57,0,0,1,3.25,0,2,2,0,0,1,.59,1.55,3,3,0,0,1-.48,1.6,7.12,7.12,0,0,1-1.12,1.36c-.41.39-.94.85-1.59,1.37h3.4v.75H95.55v-.64C96.39,31.06,97,30.51,97.52,30.08Z"/><path class="cls-3" d="M105.89,26.1h-3.47v2.25a1.67,1.67,0,0,1,.68-.52,2.16,2.16,0,0,1,1-.2,2.36,2.36,0,0,1,1.34.34,1.84,1.84,0,0,1,.73.88,2.94,2.94,0,0,1,.23,1.14,2.89,2.89,0,0,1-.27,1.27,2,2,0,0,1-.82.89,2.55,2.55,0,0,1-1.35.33,2.51,2.51,0,0,1-1.68-.54,2.19,2.19,0,0,1-.78-1.42h.88a1.42,1.42,0,0,0,.54.88,1.68,1.68,0,0,0,1,.31,1.44,1.44,0,0,0,1.17-.46,1.9,1.9,0,0,0,.4-1.24,1.68,1.68,0,0,0-.4-1.19,1.51,1.51,0,0,0-1.16-.42,1.65,1.65,0,0,0-.92.25,1.48,1.48,0,0,0-.57.69h-.84v-4h4.29Z"/><path class="cls-2" d="M9.94,17.49H6.49L1.1,3.24H5l3.3,10.1h.09l3.28-10.1h3.8Z"/><path class="cls-2" d="M23.66,17.49H20.22L14.82,3.24h3.87L22,13.34h.08l3.28-10.1h3.8Z"/><path class="cls-2" d="M30.32,17.49V3.24h3.46V17.49Z"/><path class="cls-2" d="M43.73,17.87a7.32,7.32,0,0,1-7.67-7.52c0-4.57,3.38-7.49,7.73-7.49A7.26,7.26,0,0,1,49.12,5L46.78,7.29A3.53,3.53,0,0,0,43.91,6a4.1,4.1,0,0,0-4.11,4.37,4,4,0,0,0,4.05,4.36,3.61,3.61,0,0,0,3-1.45l2.4,2.26A7.07,7.07,0,0,1,43.73,17.87Z"/><path class="cls-2" d="M50,13.53V10.91H55.1v2.62Z"/><path class="cls-2" d="M57.19,17.49V14.67l5.55-5a3,3,0,0,0,1.17-2.19,1.65,1.65,0,0,0-1.77-1.71c-1.13,0-1.87.88-2,2.15l-3.24-.44a5.16,5.16,0,0,1,5.43-4.59c2.62,0,5.15,1.39,5.15,4.37,0,2-1.18,3.22-2.49,4.38l-3.3,2.94h5.81v2.94Z"/><path class="cls-2" d="M75.34,17.87c-4,0-5.59-3.5-5.59-7.54s1.55-7.47,5.59-7.47S80.9,6.3,80.9,10.33,79.37,17.87,75.34,17.87Zm0-12.15c-1.79,0-2.13,2.81-2.13,4.61S73.55,15,75.34,15s2.09-2.81,2.09-4.64S77.11,5.72,75.34,5.72Z"/><path class="cls-2" d="M83.19,17.49V14.67l5.56-5a3,3,0,0,0,1.16-2.19,1.65,1.65,0,0,0-1.77-1.71c-1.13,0-1.87.88-2,2.15l-3.24-.44a5.16,5.16,0,0,1,5.43-4.59c2.62,0,5.15,1.39,5.15,4.37,0,2-1.18,3.22-2.49,4.38l-3.3,2.94h5.81v2.94Z"/><path class="cls-2" d="M101,17.87a5.34,5.34,0,0,1-5.41-3.62l3.08-.95A2.37,2.37,0,0,0,101,15a2,2,0,0,0,2.13-2.07c0-1.69-1.52-2.17-2.91-2.17a11.88,11.88,0,0,0-3.49.62l.35-8.15h8.73v2.9h-5.73L100,8.39a7,7,0,0,1,1.43-.14c2.86,0,5.16,1.53,5.16,4.53C106.54,16.24,103.84,17.87,101,17.87Z"/></svg>